<svg width="1080" height="1080" viewBox="0 0 1080 1080" fill="none" xmlns="http://www.w3.org/2000/svg">
<rect width="1080" height="1080" fill="#F5F5F5"/>
<rect width="1080" height="1080" fill="white"/>
<path d="M277.4 810.4C273.4 810.4 270.333 809.2 268.2 806.8C266.067 804.4 265 801.067 265 796.8V723.4C265 719 266.067 715.667 268.2 713.4C270.333 711 273.4 709.8 277.4 709.8C281.4 709.8 284.467 711 286.6 713.4C288.867 715.667 290 719 290 723.4V796.8C290 801.067 288.933 804.4 286.8 806.8C284.667 809.2 281.533 810.4 277.4 810.4ZM277.4 691.2C272.733 691.2 269.067 690.067 266.4 687.8C263.867 685.4 262.6 682.133 262.6 678C262.6 673.733 263.867 670.467 266.4 668.2C269.067 665.933 272.733 664.8 277.4 664.8C282.2 664.8 285.867 665.933 288.4 668.2C290.933 670.467 292.2 673.733 292.2 678C292.2 682.133 290.933 685.4 288.4 687.8C285.867 690.067 282.2 691.2 277.4 691.2ZM328.377 810.6C324.377 810.6 321.31 809.533 319.177 807.4C317.043 805.133 315.977 801.933 315.977 797.8V722.2C315.977 718.067 317.043 714.933 319.177 712.8C321.31 710.667 324.31 709.6 328.177 709.6C332.043 709.6 335.043 710.667 337.177 712.8C339.31 714.933 340.377 718.067 340.377 722.2V735.8L338.177 730.8C341.11 723.733 345.643 718.4 351.777 714.8C358.043 711.067 365.11 709.2 372.977 709.2C380.843 709.2 387.31 710.667 392.377 713.6C397.443 716.533 401.243 721 403.777 727C406.31 732.867 407.577 740.333 407.577 749.4V797.8C407.577 801.933 406.51 805.133 404.377 807.4C402.243 809.533 399.177 810.6 395.177 810.6C391.177 810.6 388.043 809.533 385.777 807.4C383.643 805.133 382.577 801.933 382.577 797.8V750.6C382.577 743 381.11 737.467 378.177 734C375.377 730.533 370.977 728.8 364.977 728.8C357.643 728.8 351.777 731.133 347.377 735.8C343.11 740.333 340.977 746.4 340.977 754V797.8C340.977 806.333 336.777 810.6 328.377 810.6ZM470.569 811C462.035 811 454.502 808.933 447.969 804.8C441.569 800.667 436.569 794.8 432.969 787.2C429.369 779.467 427.569 770.4 427.569 760C427.569 749.467 429.369 740.467 432.969 733C436.569 725.4 441.569 719.533 447.969 715.4C454.502 711.267 462.035 709.2 470.569 709.2C478.702 709.2 485.769 711.2 491.769 715.2C497.902 719.2 502.035 724.467 504.169 731H501.969V679C501.969 674.867 503.035 671.733 505.169 669.6C507.302 667.467 510.369 666.4 514.369 666.4C518.369 666.4 521.435 667.467 523.569 669.6C525.835 671.733 526.969 674.867 526.969 679V797.8C526.969 801.933 525.902 805.133 523.769 807.4C521.635 809.533 518.569 810.6 514.569 810.6C510.569 810.6 507.502 809.533 505.369 807.4C503.235 805.133 502.169 801.933 502.169 797.8V782.2L504.369 788.2C502.369 795.133 498.302 800.667 492.169 804.8C486.035 808.933 478.835 811 470.569 811ZM477.569 792C482.502 792 486.835 790.8 490.569 788.4C494.302 786 497.169 782.467 499.169 777.8C501.302 773 502.369 767.067 502.369 760C502.369 749.333 500.102 741.4 495.569 736.2C491.035 730.867 485.035 728.2 477.569 728.2C472.635 728.2 468.302 729.4 464.569 731.8C460.835 734.067 457.902 737.6 455.769 742.4C453.769 747.067 452.769 752.933 452.769 760C452.769 770.533 455.035 778.533 459.569 784C464.102 789.333 470.102 792 477.569 792Z" fill="#2827CC"/>
<path d="M863.6 811C853.467 811 844.667 808.933 837.2 804.8C829.733 800.667 823.933 794.8 819.8 787.2C815.667 779.467 813.6 770.4 813.6 760C813.6 752.133 814.733 745.133 817 739C819.4 732.733 822.8 727.4 827.2 723C831.6 718.467 836.867 715.067 843 712.8C849.133 710.4 856 709.2 863.6 709.2C873.733 709.2 882.533 711.267 890 715.4C897.467 719.533 903.267 725.4 907.4 733C911.533 740.6 913.6 749.6 913.6 760C913.6 767.867 912.4 774.933 910 781.2C907.733 787.467 904.4 792.867 900 797.4C895.6 801.8 890.333 805.2 884.2 807.6C878.067 809.867 871.2 811 863.6 811ZM863.6 792C868.533 792 872.867 790.8 876.6 788.4C880.333 786 883.2 782.467 885.2 777.8C887.333 773 888.4 767.067 888.4 760C888.4 749.333 886.133 741.4 881.6 736.2C877.067 730.867 871.067 728.2 863.6 728.2C858.667 728.2 854.333 729.4 850.6 731.8C846.867 734.067 843.933 737.6 841.8 742.4C839.8 747.067 838.8 752.933 838.8 760C838.8 770.533 841.067 778.533 845.6 784C850.133 789.333 856.133 792 863.6 792ZM990.634 811C982.368 811 975.101 808.933 968.834 804.8C962.701 800.667 958.634 795.133 956.634 788.2L958.834 783.2V797.8C958.834 801.933 957.768 805.133 955.634 807.4C953.501 809.533 950.501 810.6 946.634 810.6C942.634 810.6 939.568 809.533 937.434 807.4C935.301 805.133 934.234 801.933 934.234 797.8V679C934.234 674.867 935.301 671.733 937.434 669.6C939.568 667.467 942.634 666.4 946.634 666.4C950.634 666.4 953.701 667.467 955.834 669.6C958.101 671.733 959.234 674.867 959.234 679V731H956.834C958.968 724.467 963.101 719.2 969.234 715.2C975.368 711.2 982.501 709.2 990.634 709.2C999.301 709.2 1006.83 711.267 1013.23 715.4C1019.63 719.533 1024.63 725.4 1028.23 733C1031.83 740.467 1033.63 749.467 1033.63 760C1033.63 770.4 1031.83 779.467 1028.23 787.2C1024.63 794.8 1019.57 800.667 1013.03 804.8C1006.63 808.933 999.168 811 990.634 811ZM983.634 792C988.568 792 992.901 790.8 996.634 788.4C1000.37 786 1003.23 782.467 1005.23 777.8C1007.37 773 1008.43 767.067 1008.43 760C1008.43 749.333 1006.17 741.4 1001.63 736.2C997.101 730.867 991.101 728.2 983.634 728.2C978.701 728.2 974.368 729.4 970.634 731.8C966.901 734.067 963.968 737.6 961.834 742.4C959.834 747.067 958.834 752.933 958.834 760C958.834 770.533 961.101 778.533 965.634 784C970.168 789.333 976.168 792 983.634 792Z" fill="#2827CC"/>
<path d="M150 818C124.667 818 105 811 91 797C77.6667 783 71 762.667 71 736V185C71 159 78 139 92 125C106 111 126 104 152 104H494C514 104 529 109.333 539 120C549.667 130 555 144.667 555 164C555 184 549.667 199.333 539 210C529 220 514 225 494 225H226V397H472C492 397 507.333 402.333 518 413C528.667 423 534 437.667 534 457C534 476.333 528.667 491.333 518 502C507.333 512.667 492 518 472 518H226V736C226 790.667 200.667 818 150 818ZM584.313 997C566.312 997.667 551.979 994.667 541.312 988C530.646 981.333 523.312 972.667 519.312 962C515.312 952 514.312 941.667 516.312 931C517.646 920.333 521.979 911 529.312 903C536.646 895 546.646 890.333 559.312 889C585.313 887 603.979 879.667 615.313 867C627.313 855 633.313 836.333 633.313 811V386C633.313 361.333 639.979 342.667 653.313 330C666.646 316.667 685.313 310 709.313 310C733.313 310 751.646 316.667 764.313 330C777.646 342.667 784.313 361.333 784.313 386V797C784.313 841 776.979 877.333 762.313 906C748.313 934.667 726.646 956.333 697.313 971C667.979 986.333 630.313 995 584.313 997ZM708.313 228C680.979 228 659.646 221.667 644.313 209C629.646 195.667 622.313 177 622.313 153C622.313 128.333 629.646 109.667 644.313 97C659.646 83.6666 680.979 76.9999 708.313 76.9999C736.313 76.9999 757.646 83.6666 772.313 97C786.979 109.667 794.313 128.333 794.313 153C794.313 177 786.979 195.667 772.313 209C757.646 221.667 736.313 228 708.313 228Z" fill="#2827CC"/>
</svg>
