<svg width="1080" height="1080" viewBox="0 0 1080 1080" fill="none" xmlns="http://www.w3.org/2000/svg">
<rect width="1080" height="1080" fill="#F5F5F5"/>
<rect width="1080" height="1080" fill="#1F2937"/>
<path d="M253 824C227.667 824 208 817 194 803C180.667 789 174 768.667 174 742V191C174 165 181 145 195 131C209 117 229 110 255 110H597C617 110 632 115.333 642 126C652.667 136 658 150.667 658 170C658 190 652.667 205.333 642 216C632 226 617 231 597 231H329V403H575C595 403 610.333 408.333 621 419C631.667 429 637 443.667 637 463C637 482.333 631.667 497.333 621 508C610.333 518.667 595 524 575 524H329V742C329 796.667 303.667 824 253 824ZM687.313 1003C669.312 1003.67 654.979 1000.67 644.312 994C633.646 987.333 626.312 978.667 622.312 968C618.312 958 617.312 947.667 619.312 937C620.646 926.333 624.979 917 632.312 909C639.646 901 649.646 896.333 662.312 895C688.313 893 706.979 885.667 718.313 873C730.313 861 736.313 842.333 736.313 817V392C736.313 367.333 742.979 348.667 756.313 336C769.646 322.667 788.313 316 812.313 316C836.313 316 854.646 322.667 867.313 336C880.646 348.667 887.313 367.333 887.313 392V803C887.313 847 879.979 883.333 865.313 912C851.313 940.667 829.646 962.333 800.313 977C770.979 992.333 733.313 1001 687.313 1003ZM811.313 234C783.979 234 762.646 227.667 747.313 215C732.646 201.667 725.313 183 725.313 159C725.313 134.333 732.646 115.667 747.313 103C762.646 89.6666 783.979 82.9999 811.313 82.9999C839.313 82.9999 860.646 89.6666 875.313 103C889.979 115.667 897.313 134.333 897.313 159C897.313 183 889.979 201.667 875.313 215C860.646 227.667 839.313 234 811.313 234Z" fill="white"/>
</svg>
