<svg width="724" height="921" viewBox="0 0 724 921" fill="none" xmlns="http://www.w3.org/2000/svg">
<path d="M79 741C53.6667 741 34 734 20 720C6.66667 706 2.32458e-06 685.667 2.32458e-06 659V108C2.32458e-06 82 7 62 21 48C35 34 55 27 81 27H423C443 27 458 32.3333 468 43C478.667 53 484 67.6666 484 87C484 107 478.667 122.333 468 133C458 143 443 148 423 148H155V320H401C421 320 436.333 325.333 447 336C457.667 346 463 360.667 463 380C463 399.333 457.667 414.333 447 425C436.333 435.667 421 441 401 441H155V659C155 713.667 129.667 741 79 741ZM513.313 920C495.312 920.667 480.979 917.667 470.312 911C459.646 904.333 452.312 895.667 448.312 885C444.312 875 443.312 864.667 445.312 854C446.646 843.333 450.979 834 458.312 826C465.646 818 475.646 813.333 488.312 812C514.313 810 532.979 802.667 544.313 790C556.313 778 562.313 759.333 562.313 734V309C562.313 284.333 568.979 265.667 582.313 253C595.646 239.667 614.313 233 638.313 233C662.313 233 680.646 239.667 693.313 253C706.646 265.667 713.313 284.333 713.313 309V720C713.313 764 705.979 800.333 691.313 829C677.313 857.667 655.646 879.333 626.313 894C596.979 909.333 559.313 918 513.313 920ZM637.313 151C609.979 151 588.646 144.667 573.313 132C558.646 118.667 551.313 100 551.313 76C551.313 51.3333 558.646 32.6667 573.313 20C588.646 6.66663 609.979 -5.29289e-05 637.313 -5.29289e-05C665.313 -5.29289e-05 686.646 6.66663 701.313 20C715.979 32.6667 723.313 51.3333 723.313 76C723.313 100 715.979 118.667 701.313 132C686.646 144.667 665.313 151 637.313 151Z" fill="white"/>
</svg>
